<svg width="28" height="35" viewBox="0 0 28 35" fill="none" xmlns="http://www.w3.org/2000/svg">
<path d="M10.7474 1.05904C11.3734 1.0211 12.6949 1.58425 13.3209 2.07859C13.8773 1.33708 14.3642 1.33708 14.5033 1.2444C14.6028 1.17807 15.4771 0.873672 16.0335 1.05904C16.2422 1.06464 16.7986 1.39889 17.1464 1.70786C17.5637 2.07859 17.5637 3.09814 17.355 3.37624C17.2437 3.67283 16.7059 3.68516 16.4508 3.65428C16.5621 3.65428 16.729 3.5616 16.8681 3.37624C17.0072 3.19083 17.0351 2.59764 16.8681 2.44932C16.7012 2.30105 16.4508 2.35664 16.3117 2.44932L14.7119 3.74697C14.3781 4.04356 13.6687 3.93233 13.3209 3.65428C12.987 4.02501 12.208 3.83965 11.9298 3.65428L10.3996 2.54205C10.1214 2.31959 9.86635 2.44932 9.77363 2.54205C9.27284 2.98691 9.88957 3.46892 10.2605 3.65428C9.91274 3.62341 9.21718 3.3206 9.21718 2.35664C9.21718 1.43477 10.1502 1.11762 10.6779 1.06464M10.7474 1.05904L10.6779 1.06464M10.7474 1.05904C10.7251 1.06039 10.7019 1.06226 10.6779 1.06464M9.77363 9.12283C9.36795 8.74492 9.55245 7.4233 9.21718 7.82523L8.24345 9.12283C7.96522 9.4936 7.82611 10.4205 8.38256 10.7912C8.82306 11.1311 9.71801 11.7923 9.77363 11.7181C9.82929 11.6439 9.88957 12.5523 9.91274 13.3864C10.191 17.372 16.0335 18.6697 17.355 14.128C17.4359 13.8499 17.7445 12.9601 17.6332 11.2547C16.4045 11.5327 13.8773 12.0703 13.5991 11.9962L16.3813 11.2547C17.4941 10.9766 18.607 9.67897 18.8156 9.12283C18.9548 8.7521 19.1495 8.15891 18.8156 7.63986C18.3983 7.23821 17.5498 6.47199 17.4941 6.62026C17.4246 6.80567 17.9115 7.36177 17.4941 7.82523C16.8914 8.38132 15.6162 9.24643 15.338 9.30824C14.086 9.58628 11.9298 9.86433 11.582 9.77165C11.582 9.77165 10.5346 9.83174 9.77363 9.12283Z" stroke="#880707" stroke-width="0.3"/>
<path d="M14.0291 32.8487L14.165 32.5005L13.4175 31.605C13.2136 31.406 12.9191 31.4723 12.8058 31.605H12.7379C12.534 31.207 11.6505 32.0029 11.3107 32.5005C11.3375 32.5988 11.3177 32.591 11.3787 32.6995M14.0291 32.8487L11.3787 32.6995M14.0291 32.8487C13.8706 32.7327 13.7661 32.5005 13.3495 32.5005C13.0444 32.5005 12.9146 32.6291 12.7787 32.7783C12.7787 32.7783 12.6221 32.5704 12.125 32.5005C11.625 32.4301 11.3787 32.6995 11.3787 32.6995M14.0291 32.8487L13.9612 33.0975L13.6893 33.4955L13.5534 33.6945L13.3495 33.8935C13.0097 34.0925 12.4081 33.9647 12.2621 33.8935C12.0582 33.794 11.6261 33.1399 11.3787 32.6995M11.1748 31.605C11.2835 31.605 11.22 31.4723 11.1748 31.406V31.605ZM2 28.8189C2.9288 28.0228 5.57475 25.993 8.72815 24.2417C8.4563 16.0825 16.6796 13.1969 16.8835 24.2417L23 27.7243L21.7087 28.5204L20.2136 29.4159L18.6505 30.1124L17.699 30.6099H16.8835L12.8058 29.4159L8.72815 27.7243C7.5275 27.26 4.50096 26.8288 2 28.8189Z" stroke="#880707" stroke-width="0.3"/>
<path d="M0.327118 22C0.109055 21.8744 0 21.7026 0 21.4845C0 21.2268 0.131472 20.8236 0.394465 20.2751C0.663857 19.7266 1.01984 19.0954 1.46241 18.3817C1.07117 18.3486 0.724807 18.3321 0.423329 18.3321H0.0865897C0.208441 17.9885 0.542006 17.8166 1.08719 17.8166C1.26037 17.8166 1.49128 17.8398 1.77991 17.886C2.27381 17.1194 2.77411 16.399 3.28081 15.7249C3.79395 15.0442 4.19804 14.5618 4.49307 14.2776C4.67909 14.0925 4.83303 14 4.95488 14C5.08958 14 5.25954 14.1058 5.4648 14.3172C5.33651 14.423 5.15053 14.8525 4.90678 15.6059C4.66303 16.3528 4.44496 17.1722 4.25254 18.0644C4.06012 18.95 3.96391 19.6638 3.96391 20.2057C3.96391 20.4701 3.98955 20.6684 4.04088 20.8005C4.0986 20.9327 4.19159 20.9988 4.31989 20.9988C4.67265 20.9988 5.0928 20.5097 5.58026 19.5316L5.67647 19.6307C5.47765 20.1727 5.2275 20.6089 4.92602 20.9393C4.63099 21.2697 4.32629 21.4349 4.01201 21.4349C3.75547 21.4349 3.56622 21.3193 3.44437 21.088C3.32251 20.8501 3.26156 20.5229 3.26156 20.1066C3.26156 19.6836 3.31607 19.1913 3.42512 18.6295C3.01464 18.5634 2.53998 18.4973 2.0012 18.4312C1.3726 19.6208 0.814573 20.8104 0.327118 22ZM3.49247 18.2825C3.62717 17.6613 3.80035 17.017 4.01201 16.3494C4.22368 15.682 4.43534 15.107 4.64701 14.6245C4.35837 14.8096 4.00239 15.1995 3.57906 15.7943C3.16213 16.3891 2.71956 17.1161 2.25134 17.9752C2.50789 18.0281 2.77729 18.0942 3.05952 18.1735L3.49247 18.2825ZM6.24214 21.2367C6.15238 21.2367 6.07858 21.2136 6.02086 21.1673C5.96313 21.121 5.93427 21.055 5.93427 20.969C5.93427 20.8633 5.99522 20.7708 6.11707 20.6914C6.23897 20.6056 6.36404 20.5626 6.49229 20.5626C6.65907 20.5626 6.74244 20.6419 6.74244 20.8005C6.74244 20.8996 6.68794 20.9988 6.57888 21.0979C6.47627 21.1904 6.36404 21.2367 6.24214 21.2367ZM25.0174 22C24.5877 22 24.2285 21.8877 23.9399 21.6629C23.6576 21.4383 23.4492 21.1442 23.3145 20.7807C23.1862 20.4106 23.1221 20.0108 23.1221 19.5812C23.1221 18.7353 23.3241 17.8794 23.7282 17.0136C24.1323 16.1413 24.6422 15.4242 25.258 14.8625C25.8737 14.2941 26.4799 14.0099 27.0764 14.0099C27.3522 14.0099 27.5671 14.0793 27.721 14.2181C27.8813 14.3569 27.9615 14.5717 27.9615 14.8625C27.9615 15.1202 27.9038 15.4176 27.7883 15.7546C27.6729 16.0917 27.5286 16.3792 27.3554 16.6171C27.1822 16.855 27.0122 16.974 26.8455 16.974C26.7172 16.974 26.6177 16.898 26.5472 16.746C26.7845 16.4684 27.0154 16.1314 27.2399 15.7348C27.4644 15.3383 27.5767 15.0112 27.5767 14.7534C27.5767 14.6146 27.5382 14.5056 27.4612 14.4263C27.3842 14.347 27.2656 14.3073 27.1052 14.3073C26.6627 14.3073 26.188 14.6047 25.6813 15.1995C25.1746 15.7877 24.7481 16.5114 24.4017 17.3705C24.0617 18.2297 23.8918 19.0228 23.8918 19.7497C23.8918 20.2916 24.004 20.7477 24.2285 21.1177C24.453 21.4812 24.7929 21.6629 25.2484 21.6629C25.5755 21.6629 25.909 21.5638 26.249 21.3656C26.5889 21.1739 26.9 20.9162 27.1822 20.5923C27.4644 20.2685 27.6921 19.9149 27.8653 19.5316L28 19.6307C27.6536 20.3313 27.2207 20.8996 26.7011 21.3358C26.188 21.7786 25.6268 22 25.0174 22Z" fill="black"/>
</svg>
